<svg width="120" height="120" viewBox="0 0 120 120" fill="none" xmlns="http://www.w3.org/2000/svg">
  <defs>
    <linearGradient id="fuuGrad" x1="0%" y1="0%" x2="100%" y2="100%">
      <stop offset="0%" stop-color="#EA1D2C"/>
      <stop offset="100%" stop-color="#C41420"/>
    </linearGradient>
    <linearGradient id="accentGrad" x1="0%" y1="0%" x2="100%" y2="100%">
      <stop offset="0%" stop-color="#FF6B35"/>
      <stop offset="100%" stop-color="#F7A11E"/>
    </linearGradient>
    <filter id="shadow" x="-10%" y="-5%" width="120%" height="120%">
      <feDropShadow dx="0" dy="4" stdDeviation="6" flood-color="#EA1D2C" flood-opacity="0.25"/>
    </filter>
  </defs>
  <!-- Background shape: rounded square -->
  <rect width="120" height="120" rx="28" fill="url(#fuuGrad)" filter="url(#shadow)"/>
  <!-- Stylized F: bold, modern, suggests speed -->
  <path d="M32 30h40c6 0 10 4 10 10s-4 10-10 10H42v8h-10V30zm10 16h30c2 0 4-2 4-4s-2-4-4-4H42v8z" fill="white"/>
  <!-- Speed lines: motion effect -->
  <path d="M28 68h8M28 76h14M28 84h6" stroke="white" stroke-width="3" stroke-linecap="round" opacity="0.5"/>
  <!-- Accent dot: notification/pin -->
  <circle cx="98" cy="26" r="10" fill="url(#accentGrad)"/>
  <path d="M94 22l4 4 4-4" stroke="white" stroke-width="2.5" stroke-linecap="round" stroke-linejoin="round" opacity="0.9"/>
</svg>
